{"title":"Scooby Doo Adventures The Mystery Map DVDrip Xvid Ac3-MiLLENiUM","uid":8867109,"size":698424044,"categoryP":"video","categoryS":"movies","magnet":"?xt=urn:btih:c1ae8be2a0320d7376cd4bf285cb600eaf7b0b2d&amp;dn=Scooby+Doo+Adventures+The+Mystery+Map+DVDrip+Xvid+Ac3-MiLLENiUM&amp;tr=udp%3A%2F%2Ftracker.openbittorrent.com%3A80&amp;tr=udp%3A%2F%2Fopen.demonii.com%3A1337&amp;tr=udp%3A%2F%2Ftracker.coppersurfer.tk%3A6969&amp;tr=udp%3A%2F%2Fexodus.desync.com%3A6969","seeders":1,"leechers":1,"uploader":"EliteScene","files":3,"time":1377947993,"description":"General &lt;a href=&quot;\nhttp://www.imdb.com/title/tt3043386/&quot; rel=&quot;nofollow&quot; target=&quot;_NEW&quot;&gt;\nhttp://www.imdb.com/title/tt3043386/&lt;/a&gt;\nComplete name : Scooby.Doo.Adventures.The.Mystery.Map.DVDrip Xvid Ac3-MiLLENiUM.avi\nSource : DVDR[thanks]\nFormat : AVI\nFormat/Info : Audio Video Interleave\nFile size : 659 MiB\nDuration : 44mn 1s\nOverall bit rate : 2 093 Kbps\nWriting application : VirtualDubMod 1.5.10.2 (build 2540/release)\nWriting library : VirtualDubMod build 2540/release\n\nVideo\nID : 0\nFormat : MPEG-4 Visual\nFormat profile : Advanced Simple@L5\nFormat settings, BVOP : 2\nFormat settings, QPel : No\nFormat settings, GMC : No warppoints\nFormat settings, Matrix : Default (H.263)\nCodec ID : XVID\nCodec ID/Hint : XviD\nDuration : 44mn 1s\nBit rate : 1 699 Kbps\nWidth : 720 pixels\nHeight : 384 pixels\nDisplay aspect ratio : 1.875\nFrame rate : 25.000 fps\nColor space : YUV\nChroma subsampling : 4:2:0\nBit depth : 8 bits\nScan type : Progressive\nCompression mode : Lossy\nBits/(Pixel*Frame) : 0.246\nStream size : 535 MiB (81%)\nWriting library : XviD 1.2.1 (UTC 2008-12-04)\n\nAudio\nID : 1\nFormat : AC-3\nFormat/Info : Audio Coding 3\nMode extension : CM (complete main)\nCodec ID : 2000\nDuration : 44mn 1s\nBit rate mode : Constant\nBit rate : 384 Kbps\nChannel(s) : 6 channels\nChannel positions : Front: L C R, Side: L R, LFE\nSampling rate : 48.0 KHz\nBit depth : 16 bits\nCompression mode : Lossy\nStream size : 121 MiB (18%)\nAlignment : Split accross interleaves\nInterleave, duration : 40 ms (1.00 video frame)\nInterleave, preload duration : 500 ms\n\n[img]http://s8.postimg.org/fdo37x2np/Scooby_Doo_Adventures_The_Mystery_Map_DVDrip_Xvi.png[/img]\n[img]http://s8.postimg.org/in2iedqr9/Scooby_Doo_Adventures_The_Mystery_Map_DVDrip_Xvi.png[/img]","torrent":{"xt":"urn:btih:c1ae8be2a0320d7376cd4bf285cb600eaf7b0b2d","amp;dn":"Scooby+Doo+Adventures+The+Mystery+Map+DVDrip+Xvid+Ac3-MiLLENiUM","amp;tr":["udp%3A%2F%2Ftracker.openbittorrent.com%3A80","udp%3A%2F%2Fopen.demonii.com%3A1337","udp%3A%2F%2Ftracker.coppersurfer.tk%3A6969","udp%3A%2F%2Fexodus.desync.com%3A6969"],"infoHash":"c1ae8be2a0320d7376cd4bf285cb600eaf7b0b2d","infoHashBuffer":{"type":"Buffer","data":[193,174,139,226,160,50,13,115,118,205,75,242,133,203,96,14,175,123,11,45]},"announce":[],"urlList":[]}}